<svg xmlns="http://www.w3.org/2000/svg" version="1.1" xmlns:xlink="http://www.w3.org/1999/xlink" xmlns:svgjs="http://svgjs.dev/svgjs" width="1440" height="560" preserveAspectRatio="none" viewBox="0 0 1440 560"><g mask="url(&quot;#SvgjsMask1083&quot;)" fill="none"><rect width="1440" height="560" x="0" y="0" fill="url(&quot;#SvgjsLinearGradient1084&quot;)"></rect><path d="M1536 560L0 560 L0 289.64Q66.32 235.96, 120 302.28Q170.08 280.36, 192 330.43Q222.45 288.88, 264 319.34Q280.47 263.81, 336 280.28Q383.21 255.49, 408 302.7Q470.07 292.77, 480 354.85Q534.05 288.9, 600 342.95Q614.79 285.75, 672 300.54Q723.78 232.32, 792 284.1Q897.95 270.06, 912 376.01Q940.37 284.38, 1032 312.74Q1073.38 282.13, 1104 323.51Q1170.13 269.64, 1224 335.78Q1290.51 282.29, 1344 348.8Q1388.15 320.96, 1416 365.11Q1438.88 267.99, 1536 290.86z" fill="#182f5d"></path><path d="M1536 560L0 560 L0 409.92Q17.71 355.63, 72 373.35Q100.45 329.8, 144 358.25Q236.52 330.77, 264 423.29Q306.53 345.82, 384 388.35Q425.29 357.64, 456 398.93Q492.2 315.13, 576 351.33Q622.3 325.63, 648 371.92Q736.56 340.48, 768 429.03Q770.24 359.27, 840 361.51Q907.05 308.56, 960 375.6Q1051.77 347.37, 1080 439.14Q1115.73 354.87, 1200 390.6Q1243.18 361.78, 1272 404.96Q1285.16 346.12, 1344 359.28Q1388.3 331.57, 1416 375.87Q1497.39 337.26, 1536 418.66z" fill="#25467d"></path><path d="M1512 560L0 560 L0 495.09Q22.59 397.68, 120 420.27Q162.06 390.32, 192 432.38Q256.85 425.23, 264 490.08Q337.26 443.34, 384 516.59Q409.38 421.98, 504 447.36Q552 375.36, 624 423.36Q729.43 408.8, 744 514.23Q794.88 445.11, 864 495.98Q895.31 407.29, 984 438.6Q1032.66 415.26, 1056 463.92Q1118.39 454.32, 1128 516.71Q1147.82 416.53, 1248 436.35Q1278.22 394.57, 1320 424.79Q1397.55 382.34, 1440 459.89Q1489.69 437.58, 1512 487.28z" fill="#356cb1"></path><path d="M1560 560L0 560 L0 578.94Q21.18 480.13, 120 501.31Q162.99 472.3, 192 515.29Q282.89 486.18, 312 577.07Q331.82 476.89, 432 496.71Q505.89 450.6, 552 524.49Q604.8 457.29, 672 510.09Q749.87 467.96, 792 545.82Q840.29 522.11, 864 570.4Q929.03 515.43, 984 580.46Q998.13 522.59, 1056 536.72Q1070.14 478.86, 1128 493Q1200.6 445.6, 1248 518.2Q1313.7 511.9, 1320 577.61Q1336.82 474.43, 1440 491.25Q1514.83 446.08, 1560 520.91z" fill="white"></path></g><defs><mask id="SvgjsMask1083"><rect width="1440" height="560" fill="#ffffff"></rect></mask><linearGradient x1="15.28%" y1="-39.29%" x2="84.72%" y2="139.29%" gradientUnits="userSpaceOnUse" id="SvgjsLinearGradient1084"><stop stop-color="#0e2a47" offset="0"></stop><stop stop-color="rgba(27, 107, 211, 0.58)" offset="1"></stop></linearGradient></defs></svg>