<svg xmlns="http://www.w3.org/2000/svg" version="1.1" xmlns:xlink="http://www.w3.org/1999/xlink" xmlns:svgjs="http://svgjs.dev/svgjs" width="1440" height="560" preserveAspectRatio="none" viewBox="0 0 1440 560"><g mask="url(&quot;#SvgjsMask1046&quot;)" fill="none"><rect width="1440" height="560" x="0" y="0" fill="url(&quot;#SvgjsLinearGradient1047&quot;)"></rect><g transform="translate(0, 0)" stroke-linecap="round"><path d="M244 231.16 L244 328.85" stroke-width="25.5" stroke="#dd1133"></path><path d="M278 228.13 L278 331.87" stroke-width="25.5" stroke="#dd1133"></path><path d="M312 127.13 L312 432.87" stroke-width="25.5" stroke="#dd1133"></path><path d="M346 160.36 L346 399.64" stroke-width="25.5" stroke="#dd1133"></path><path d="M380 250.74 L380 309.26" stroke-width="25.5" stroke="#dd1133"></path><path d="M414 228.17 L414 331.83" stroke-width="25.5" stroke="#3a7cc3"></path><path d="M448 181.88 L448 378.12" stroke-width="25.5" stroke="#dd1133"></path><path d="M482 240.26 L482 319.74" stroke-width="25.5" stroke="#dd1133"></path><path d="M516 202.45 L516 357.55" stroke-width="25.5" stroke="#dd1133"></path><path d="M550 232.34 L550 327.66" stroke-width="25.5" stroke="#3a7cc3"></path><path d="M584 154.95 L584 405.05" stroke-width="25.5" stroke="#dd1133"></path><path d="M618 184.78 L618 375.22" stroke-width="25.5" stroke="#dd1133"></path><path d="M652 237.24 L652 322.76" stroke-width="25.5" stroke="#3a7cc3"></path><path d="M686 129.47 L686 430.53" stroke-width="25.5" stroke="#3a7cc3"></path><path d="M720 251.7 L720 308.3" stroke-width="25.5" stroke="#dd1133"></path><path d="M754 149.21 L754 410.79" stroke-width="25.5" stroke="#3a7cc3"></path><path d="M788 200.67 L788 359.33" stroke-width="25.5" stroke="#dd1133"></path><path d="M822 188.64 L822 371.36" stroke-width="25.5" stroke="#dd1133"></path><path d="M856 210.47 L856 349.52" stroke-width="25.5" stroke="#3a7cc3"></path><path d="M890 240.3 L890 319.7" stroke-width="25.5" stroke="#3a7cc3"></path><path d="M924 194.31 L924 365.69" stroke-width="25.5" stroke="#3a7cc3"></path><path d="M958 113.56 L958 446.44" stroke-width="25.5" stroke="#dd1133"></path><path d="M992 234.88 L992 325.13" stroke-width="25.5" stroke="#dd1133"></path><path d="M1026 230.49 L1026 329.51" stroke-width="25.5" stroke="#3a7cc3"></path><path d="M1060 121.65 L1060 438.35" stroke-width="25.5" stroke="#dd1133"></path><path d="M1094 198.89 L1094 361.11" stroke-width="25.5" stroke="#3a7cc3"></path><path d="M1128 126.66 L1128 433.35" stroke-width="25.5" stroke="#dd1133"></path><path d="M1162 221.63 L1162 338.38" stroke-width="25.5" stroke="#dd1133"></path><path d="M1196 141.1 L1196 418.9" stroke-width="25.5" stroke="#dd1133"></path></g></g><defs><mask id="SvgjsMask1046"><rect width="1440" height="560" fill="#ffffff"></rect></mask><linearGradient x1="15.28%" y1="-39.29%" x2="84.72%" y2="139.29%" gradientUnits="userSpaceOnUse" id="SvgjsLinearGradient1047"><stop stop-color="#0e2a47" offset="0"></stop><stop stop-color="#00459e" offset="1"></stop></linearGradient></defs></svg>